<?xml version="1.0" encoding="UTF-8"?>
<svg xmlns="http://www.w3.org/2000/svg" xmlns:xlink="http://www.w3.org/1999/xlink"><symbol viewBox="0 0 18 18" id="Check" xmlns="http://www.w3.org/2000/svg"><path d="M.333 9c0 4.777 3.89 8.667 8.667 8.667 4.777 0 8.666-3.89 8.666-8.667 0-4.777-3.89-8.667-8.666-8.667C4.222.333.333 4.223.333 9zm4.249-.423c.38-.38.993-.38 1.353 0l1.247 1.247c.169.17.465.17.634 0l4.249-4.248c.38-.38.993-.38 1.353 0 .38.38.38.993 0 1.352l-5.243 5.243c-.38.38-.993.38-1.353 0l-2.24-2.24a.944.944 0 010-1.354z"/></symbol><symbol viewBox="0 0 24 24" id="Document" xmlns="http://www.w3.org/2000/svg"><path fill-rule="evenodd" clip-rule="evenodd" d="M3 2h13.081l.293.293 5 5 .293.293v14.747H3V2zm2 2v16.333h14.667V9h-5V4H5zm3.167 3h-1v2H12.5V7H8.167zm-1 4.167H17.5v2H7.167v-2zm1 4.166h-1v2H17.5v-2H8.167z"/></symbol><symbol viewBox="0 0 6 14" id="Facebook" xmlns="http://www.w3.org/2000/svg"><path d="M1.297 2.712v1.927H0v2.357h1.297V14H3.96V6.996h1.788s.167-1.13.248-2.366H3.971V3.018c0-.24.29-.564.577-.564H6V0H4.027c-2.796 0-2.73 2.36-2.73 2.712z"/></symbol><symbol viewBox="0 0 24 24" id="apps1" xmlns="http://www.w3.org/2000/svg"><path d="M10 13H3a1 1 0 00-1 1v7a1 1 0 001 1h7a1 1 0 001-1v-7a1 1 0 00-1-1zm-1 7H4v-5h5v5zM21 2h-7a1 1 0 00-1 1v7a1 1 0 001 1h7a1 1 0 001-1V3a1 1 0 00-1-1zm-1 7h-5V4h5v5zm1 4h-7a1 1 0 00-1 1v7a1 1 0 001 1h7a1 1 0 001-1v-7a1 1 0 00-1-1zm-1 7h-5v-5h5v5zM10 2H3a1 1 0 00-1 1v7a1 1 0 001 1h7a1 1 0 001-1V3a1 1 0 00-1-1zM9 9H4V4h5v5z"/></symbol><symbol viewBox="0 0 24 24" id="arrow-down" xmlns="http://www.w3.org/2000/svg"><g clip-path="url(#aeclip0)"><path d="M12.71 15.54l5.65-5.66a1 1 0 10-1.41-1.42l-5 4.95L7 8.46a1 1 0 00-1.41 0 1 1 0 00-.3.71 1 1 0 00.3.71l5.65 5.66a1 1 0 001.47 0z"/></g><defs><clipPath id="aeclip0"><path d="M0 0h24v24H0V0z"/></clipPath></defs></symbol><symbol viewBox="0 0 24 24" id="arrow-left" xmlns="http://www.w3.org/2000/svg"><path d="M8.46 12.71l5.66 5.65a1.002 1.002 0 001.71-.705 1 1 0 00-.29-.705l-4.95-5L15.54 7a1 1 0 000-1.41 1 1 0 00-.71-.3 1 1 0 00-.71.3l-5.66 5.65a1 1 0 000 1.47z"/></symbol><symbol viewBox="0 0 24 24" id="arrow-right" xmlns="http://www.w3.org/2000/svg"><path d="M15.54 11.29L9.88 5.64a1 1 0 10-1.42 1.41l4.95 5L8.46 17a1 1 0 000 1.41 1 1 0 00.71.3.999.999 0 00.71-.3l5.66-5.65a1 1 0 000-1.47z"/></symbol><symbol viewBox="0 0 24 24" id="arrow-up" xmlns="http://www.w3.org/2000/svg"><path d="M11.29 8.46l-5.65 5.66a1 1 0 101.41 1.42l5-4.95L17 15.54a1 1 0 001.41 0 1 1 0 00.3-.71.998.998 0 00-.3-.71l-5.65-5.66a1 1 0 00-1.47 0z"/></symbol><symbol viewBox="0 0 32 32" id="arrow01" xmlns="http://www.w3.org/2000/svg"><path fill-rule="evenodd" clip-rule="evenodd" d="M21.607 10l5.108 5.091-5.108 5.091-.851-.848 3.654-3.643H6v-1.2h18.41l-3.654-3.643.85-.848z"/></symbol><symbol viewBox="0 0 24 24" id="asterisk1" xmlns="http://www.w3.org/2000/svg"><path d="M18.562 14.634L14 12l4.562-2.634a1 1 0 00-1-1.732L13 10.268V5a1 1 0 00-2 0v5.268L6.438 7.634a1 1 0 00-1 1.732L10 12l-4.562 2.634a1 1 0 001 1.732L11 13.732V19a1 1 0 102 0v-5.268l4.562 2.634a1 1 0 001-1.732z"/></symbol><symbol viewBox="0 0 24 24" id="atm-card1" xmlns="http://www.w3.org/2000/svg"><path d="M7 15h3a1 1 0 000-2H7a1 1 0 000 2zM19 5H5a3 3 0 00-3 3v9a3 3 0 003 3h14a3 3 0 003-3V8a3 3 0 00-3-3zm1 12a1 1 0 01-1 1H5a1 1 0 01-1-1v-6h16v6zm0-8H4V8a1 1 0 011-1h14a1 1 0 011 1v1z"/></symbol><symbol viewBox="0 0 32 32" id="calendar" xmlns="http://www.w3.org/2000/svg"><path d="M28 28H4V10h24v18zm2-24h-4V0h-6v4h-8V0H6v4H2C.9 4 0 4.9 0 6v24c0 1.1.9 2 2 2h28c1.1 0 2-.9 2-2V6c0-1.1-.9-2-2-2z"/><path d="M12 14H8v4h4v-4zm6 0h-4v4h4v-4zm-6 6H8v4h4v-4zm6 0h-4v4h4v-4zm6-6h-4v4h4v-4zm0 6h-4v4h4v-4z"/></symbol><symbol viewBox="0 0 24 24" id="camera1" xmlns="http://www.w3.org/2000/svg"><path d="M19 6.5h-1.28l-.32-1a3 3 0 00-2.84-2H9.44A3 3 0 006.6 5.55l-.32 1H5a3 3 0 00-3 3v8a3 3 0 003 3h14a3 3 0 003-3v-8a3.002 3.002 0 00-3-3.05zm1 11a1 1 0 01-1 1H5a1 1 0 01-1-1v-8a1 1 0 011-1h2a1 1 0 001-.68l.54-1.64a1 1 0 01.95-.68h5.12a1 1 0 01.95.68l.54 1.64a1 1 0 00.9.68h2a1 1 0 011 1v8zm-8-9a4 4 0 100 8 4 4 0 000-8zm0 6a2 2 0 110-4 2 2 0 010 4z"/></symbol><symbol viewBox="0 0 24 24" id="chat" xmlns="http://www.w3.org/2000/svg"><path d="M8 11a1 1 0 100 2 1 1 0 000-2zm4 0a1 1 0 100 2 1 1 0 000-2zm4 0a1 1 0 100 2 1 1 0 000-2zm-4-9A10 10 0 002 12a9.89 9.89 0 002.26 6.33l-2 2a1 1 0 00-.21 1.09A1 1 0 003 22h9a10 10 0 000-20zm0 18H5.41l.93-.93a1 1 0 00.3-.71 1 1 0 00-.3-.7A8 8 0 1112 20z"/></symbol><symbol viewBox="0 0 24 24" id="close" xmlns="http://www.w3.org/2000/svg"><path d="M13.41 12l4.3-4.29a1.004 1.004 0 10-1.42-1.42L12 10.59l-4.29-4.3a1.004 1.004 0 00-1.42 1.42l4.3 4.29-4.3 4.29a1 1 0 00.325 1.639 1 1 0 001.095-.219l4.29-4.3 4.29 4.3a1.001 1.001 0 001.639-.325 1 1 0 00-.22-1.095L13.41 12z"/></symbol><symbol viewBox="0 0 25 26" id="close2" xmlns="http://www.w3.org/2000/svg"><path d="M.413 2.145a1.225 1.225 0 01-.404-.88A1.252 1.252 0 01.36.36 1.198 1.198 0 011.245 0a1.178 1.178 0 01.862.412L12.27 10.82 22.452.412a1.194 1.194 0 01.852-.376 1.17 1.17 0 01.858.361 1.223 1.223 0 01.345.881 1.242 1.242 0 01-.377.867l-10.166 10.39 10.168 10.413a1.234 1.234 0 01-.006 1.71 1.18 1.18 0 01-.832.36 1.178 1.178 0 01-.84-.34L12.27 14.275 2.105 24.685a1.203 1.203 0 01-.863.42 1.177 1.177 0 01-.89-.358 1.228 1.228 0 01-.351-.91 1.25 1.25 0 01.411-.883l10.164-10.419L.413 2.145z"/></symbol><symbol viewBox="0 0 24 24" id="comment-alt-message1" xmlns="http://www.w3.org/2000/svg"><path d="M17 7H7a1 1 0 000 2h10a1 1 0 100-2zm0 4H7a1 1 0 000 2h10a1 1 0 000-2zm2-9H5a3 3 0 00-3 3v10a3 3 0 003 3h11.59l3.7 3.71A1 1 0 0021 22a.84.84 0 00.38-.08A1 1 0 0022 21V5a3 3 0 00-3-3zm1 16.59l-2.29-2.3A1 1 0 0017 16H5a1 1 0 01-1-1V5a1 1 0 011-1h14a1 1 0 011 1v13.59z"/></symbol><symbol viewBox="0 0 16 16" id="down" xmlns="http://www.w3.org/2000/svg"><path d="M8 12.5L12 8H8.5V.5h-1V8H4l4 4.5z"/><path d="M14.5 14.5h-13v-3h-1V15a.5.5 0 00.5.5h14a.5.5 0 00.5-.5v-3.5h-1v3z"/></symbol><symbol viewBox="0 0 24 24" id="ellipsis-v1" xmlns="http://www.w3.org/2000/svg"><path d="M12 7a2 2 0 100-4 2 2 0 000 4zm0 10a2 2 0 100 4 2 2 0 000-4zm0-7a2 2 0 100 4 2 2 0 000-4z"/></symbol><symbol viewBox="0 0 24 24" id="exit1" xmlns="http://www.w3.org/2000/svg"><path d="M4 12a1 1 0 001 1h7.59l-2.3 2.29a1.002 1.002 0 00.325 1.639 1 1 0 001.095-.219l4-4a1 1 0 00.21-.33 1 1 0 000-.76 1 1 0 00-.21-.33l-4-4a1.003 1.003 0 10-1.42 1.42l2.3 2.29H5a1 1 0 00-1 1zM17 2H7a3 3 0 00-3 3v3a1 1 0 002 0V5a1 1 0 011-1h10a1 1 0 011 1v14a1 1 0 01-1 1H7a1 1 0 01-1-1v-3a1 1 0 10-2 0v3a3 3 0 003 3h10a3 3 0 003-3V5a3 3 0 00-3-3z"/></symbol><symbol viewBox="0 0 24 24" id="filter1" xmlns="http://www.w3.org/2000/svg"><path d="M19 2H5a3 3 0 00-3 3v1.17a3 3 0 00.25 1.2v.06c.141.321.341.613.59.86L9 14.41V21a1 1 0 001 1 1 1 0 00.45-.11l4-2A1 1 0 0015 19v-4.59l6.12-6.12a2.81 2.81 0 00.59-.86v-.06a3 3 0 00.29-1.2V5a3 3 0 00-3-3zm-5.71 11.29A1 1 0 0013 14v4.38l-2 1V14a1 1 0 00-.29-.71L5.41 8h13.18l-5.3 5.29zM20 6H4V5a1 1 0 011-1h14a1 1 0 011 1v1z"/></symbol><symbol viewBox="0 0 24 24" id="gift1" xmlns="http://www.w3.org/2000/svg"><path d="M18 7h-.35A3.45 3.45 0 0018 5.5a3.49 3.49 0 00-6-2.44A3.49 3.49 0 006 5.5 3.45 3.45 0 006.35 7H6a3 3 0 00-3 3v2a1 1 0 001 1h1v6a3 3 0 003 3h8a3 3 0 003-3v-6h1a1 1 0 001-1v-2a3 3 0 00-3-3zm-7 13H8a1 1 0 01-1-1v-6h4v7zm0-9H5v-1a1 1 0 011-1h5v2zm0-4H9.5A1.5 1.5 0 1111 5.5V7zm2-1.5A1.5 1.5 0 1114.5 7H13V5.5zM17 19a1 1 0 01-1 1h-3v-7h4v6zm2-8h-6V9h5a1 1 0 011 1v1z"/></symbol><symbol viewBox="0 0 24 24" id="hamburger" xmlns="http://www.w3.org/2000/svg"><path d="M3 8h18a1 1 0 100-2H3a1 1 0 000 2zm18 8H3a1 1 0 000 2h18a1 1 0 000-2zm0-5H3a1 1 0 000 2h18a1 1 0 000-2z"/></symbol><symbol viewBox="0 0 24 24" id="history1" xmlns="http://www.w3.org/2000/svg"><path d="M12 2a10 10 0 00-6.88 2.77V3a1 1 0 00-2 0v4.5a1 1 0 001 1h4.5a1 1 0 000-2h-2.4A8 8 0 114 12a1 1 0 10-2 0A10 10 0 1012 2zm0 6a1 1 0 00-1 1v3a1 1 0 001 1h2a1 1 0 000-2h-1V9a1 1 0 00-1-1z"/></symbol><symbol viewBox="0 0 24 24" id="image-v1" xmlns="http://www.w3.org/2000/svg"><path d="M19 2H5a3 3 0 00-3 3v14a3 3 0 003 3h14a2.78 2.78 0 00.49-.05l.3-.07h.12l.37-.14.13-.07c.1-.06.21-.11.31-.18a3.78 3.78 0 00.38-.32l.07-.09c.098-.1.188-.206.27-.32l.09-.13c.07-.111.13-.228.18-.35.027-.048.05-.098.07-.15.05-.12.08-.25.12-.38v-.15c.057-.195.09-.397.1-.6V5a3 3 0 00-3-3zM5 20a1 1 0 01-1-1v-4.31l3.29-3.3a1 1 0 011.42 0l8.6 8.61H5zm15-1a1 1 0 01-.07.36c-.023.049-.05.096-.08.14a.948.948 0 01-.09.12l-5.35-5.35.88-.88a1.002 1.002 0 011.42 0l3.29 3.3V19zm0-5.14L18.12 12a3.08 3.08 0 00-4.24 0l-.88.88L10.12 10a3.08 3.08 0 00-4.24 0L4 11.86V5a1 1 0 011-1h14a1 1 0 011 1v8.86z"/></symbol><symbol viewBox="0 0 14 14" id="link" xmlns="http://www.w3.org/2000/svg"><path d="M3.189 7.245a.69.69 0 011.123.75.687.687 0 01-.15.222l-1.46 1.46a1.374 1.374 0 00.974 2.347c.365 0 .715-.145.974-.403l3.41-3.404a.687.687 0 000-.972.687.687 0 01.486-1.174.69.69 0 01.487.201 2.06 2.06 0 010 2.918l-3.41 3.404a2.758 2.758 0 01-4.493-.892 2.748 2.748 0 01.597-2.998l1.462-1.46v.001zm8.263-.49a.69.69 0 01-1.123-.75.685.685 0 01.149-.223l1.46-1.459a1.375 1.375 0 00-.973-2.347 1.38 1.38 0 00-.975.402L6.582 5.782a.687.687 0 000 .973.687.687 0 01-.487 1.174.69.69 0 01-.487-.202 2.06 2.06 0 010-2.917l3.41-3.404a2.758 2.758 0 014.494.892 2.746 2.746 0 01-.597 2.997l-1.463 1.46z"/></symbol><symbol viewBox="0 0 14 14" id="linkin" xmlns="http://www.w3.org/2000/svg"><path d="M0 4.375h3.13V14H0V4.375zm11.659.113c-.034-.01-.065-.022-.1-.032a2.042 2.042 0 00-.127-.024 2.807 2.807 0 00-.562-.057c-1.825 0-2.983 1.327-3.364 1.84v-1.84H4.375V14h3.13V8.75s2.367-3.295 3.365-.875V14H14V7.505a3.122 3.122 0 00-2.341-3.017zM1.531 3.063a1.531 1.531 0 100-3.063 1.531 1.531 0 000 3.063z"/></symbol><symbol viewBox="0 0 24 24" id="list-ul1" xmlns="http://www.w3.org/2000/svg"><path d="M3.71 16.29a1 1 0 00-.33-.21 1 1 0 00-.76 0 1 1 0 00-.33.21 1 1 0 00-.21.33 1 1 0 00.21 1.09c.097.088.209.16.33.21a.94.94 0 00.76 0 1.15 1.15 0 00.33-.21 1 1 0 00.21-1.09 1 1 0 00-.21-.33zM7 8h14a1 1 0 100-2H7a1 1 0 000 2zm-3.29 3.29a1 1 0 00-1.09-.21 1.15 1.15 0 00-.33.21 1 1 0 00-.21.33.94.94 0 000 .76c.05.121.122.233.21.33.097.088.209.16.33.21a.94.94 0 00.76 0 1.15 1.15 0 00.33-.21 1.15 1.15 0 00.21-.33.94.94 0 000-.76 1 1 0 00-.21-.33zM21 11H7a1 1 0 000 2h14a1 1 0 000-2zM3.71 6.29a1 1 0 00-.33-.21 1 1 0 00-1.09.21 1.15 1.15 0 00-.21.33.94.94 0 000 .76c.05.121.122.233.21.33.097.088.209.16.33.21a1 1 0 001.09-.21 1.15 1.15 0 00.21-.33.94.94 0 000-.76 1.15 1.15 0 00-.21-.33zM21 16H7a1 1 0 000 2h14a1 1 0 000-2z"/></symbol><symbol viewBox="0 0 24 24" id="location" xmlns="http://www.w3.org/2000/svg"><path d="M15.442 15.46l.127-.206c1.896-3.14 2.85-5.885 2.836-8.16a5.925 5.925 0 00-11.85-.003c-.013 2.278.941 5.024 2.837 8.163l.127.206c-3.992.493-6.639 1.92-6.639 3.614 0 2.126 4.216 3.792 9.6 3.792 5.384 0 9.6-1.666 9.6-3.792 0-1.694-2.646-3.12-6.638-3.614zM7.194 7.093a5.286 5.286 0 1110.573.002c.027 4.537-4.215 10.133-5.287 11.474-1.072-1.341-5.313-6.937-5.286-11.476zm5.286 15.134c-5.36 0-8.96-1.63-8.96-3.153 0-1.35 2.67-2.607 6.375-3.015a33.82 33.82 0 002.342 3.222.32.32 0 00.487 0 33.828 33.828 0 002.342-3.222c3.705.408 6.376 1.663 6.376 3.015 0 1.523-3.601 3.153-8.962 3.153z"/><path d="M9.869 20.377c-1.417-.181-2.555-.5-3.203-.898a.321.321 0 00-.444.101.319.319 0 00.11.443c.723.444 1.95.795 3.456.988a.32.32 0 00.081-.633zm3.148.153c-.445.01-.909.008-1.361-.009a.32.32 0 00-.312.431.32.32 0 00.288.208 23.45 23.45 0 001.4.009.319.319 0 00.312-.327.316.316 0 00-.327-.312zm2.161-13.437a2.698 2.698 0 10-5.396.001 2.698 2.698 0 005.396 0zm-4.756 0a2.058 2.058 0 114.116 0 2.058 2.058 0 01-4.116 0z"/></symbol><symbol viewBox="0 0 24 24" id="location-pin-alt1" xmlns="http://www.w3.org/2000/svg"><path d="M12 10.8a2 2 0 100-4 2 2 0 000 4zm-.71 6.91a1 1 0 001.42 0l4.09-4.1a6.79 6.79 0 10-9.6 0l4.09 4.1zM7.23 8.34a4.81 4.81 0 012.13-3.55 4.81 4.81 0 015.28 0 4.82 4.82 0 01.75 7.41L12 15.59 8.61 12.2a4.769 4.769 0 01-1.38-3.86zM19 20H5a1 1 0 000 2h14a1 1 0 100-2z"/></symbol><symbol viewBox="0 0 24 24" id="mail" xmlns="http://www.w3.org/2000/svg"><path d="M20 4H4c-1.1 0-1.99.9-1.99 2L2 18c0 1.1.9 2 2 2h16c1.1 0 2-.9 2-2V6c0-1.1-.9-2-2-2zm0 14H4V8l8 5 8-5v10zm-8-7L4 6h16l-8 5z"/></symbol><symbol viewBox="0 0 24 24" id="message1" xmlns="http://www.w3.org/2000/svg"><path d="M20.34 9.32l-14-7a3 3 0 00-4.08 3.9l2.4 5.37a1.06 1.06 0 010 .82l-2.4 5.37A3 3 0 005 22a3.14 3.14 0 001.35-.32l14-7a3 3 0 000-5.36h-.01zm-.89 3.57l-14 7a1 1 0 01-1.35-1.3l2.39-5.37a2 2 0 00.08-.22h6.89a1 1 0 000-2H6.57a2 2 0 00-.08-.22L4.1 5.41a1 1 0 011.35-1.3l14 7a1 1 0 010 1.78z"/></symbol><symbol viewBox="0 0 24 24" id="minus-circle1" xmlns="http://www.w3.org/2000/svg"><path d="M12 2a10 10 0 100 20 10 10 0 000-20zm0 18a8 8 0 110-16.001A8 8 0 0112 20zm4-9H8a1 1 0 000 2h8a1 1 0 000-2z"/></symbol><symbol viewBox="0 0 24 24" id="minus1" xmlns="http://www.w3.org/2000/svg"><path d="M19 11H5a1 1 0 000 2h14a1 1 0 000-2z"/></symbol><symbol viewBox="0 0 24 24" id="news" xmlns="http://www.w3.org/2000/svg"><path d="M17 11h-1a1 1 0 000 2h1a1 1 0 000-2zm0 4h-1a1 1 0 000 2h1a1 1 0 000-2zm-6-6h6a1 1 0 100-2h-6a1 1 0 100 2zm10-6H7a1 1 0 00-1 1v3H3a1 1 0 00-1 1v10a3 3 0 003 3h13a4 4 0 004-4V4a1 1 0 00-1-1zM6 18a1 1 0 11-2 0V9h2v9zm14-1a2 2 0 01-2 2H7.82A3 3 0 008 18V5h12v12zm-9-4h1a1 1 0 000-2h-1a1 1 0 000 2zm0 4h1a1 1 0 000-2h-1a1 1 0 000 2z"/></symbol><symbol viewBox="0 0 24 24" id="notes1" xmlns="http://www.w3.org/2000/svg"><path d="M16 14H8a1 1 0 000 2h8a1 1 0 000-2zm0-4h-6a1 1 0 000 2h6a1 1 0 000-2zm4-6h-3V3a1 1 0 00-2 0v1h-2V3a1 1 0 00-2 0v1H9V3a1 1 0 00-2 0v1H4a1 1 0 00-1 1v14a3 3 0 003 3h12a3 3 0 003-3V5a1 1 0 00-1-1zm-1 15a1 1 0 01-1 1H6a1 1 0 01-1-1V6h2v1a1 1 0 002 0V6h2v1a1 1 0 002 0V6h2v1a1 1 0 002 0V6h2v13z"/></symbol><symbol viewBox="0 0 24 24" id="phone1" xmlns="http://www.w3.org/2000/svg"><path d="M19.44 13c-.22 0-.45-.07-.67-.12a9.439 9.439 0 01-1.31-.39 2 2 0 00-2.48 1l-.22.45a12.18 12.18 0 01-2.66-2 12.177 12.177 0 01-2-2.66l.42-.28a2 2 0 001-2.48 10.32 10.32 0 01-.39-1.31c-.05-.22-.09-.45-.12-.68a3 3 0 00-3-2.49h-3a3 3 0 00-3 3.41 19 19 0 0016.52 16.46h.38a3 3 0 002.741-1.778c.173-.388.26-.808.259-1.232v-3a3 3 0 00-2.47-2.9zm.5 6a1 1 0 01-.723.962 1.05 1.05 0 01-.437.038A17 17 0 014.07 5.22a1.09 1.09 0 01.25-.82 1 1 0 01.75-.34h3a1 1 0 011 .79c.04.273.09.543.15.81.115.527.27 1.045.46 1.55l-1.4.65a1 1 0 00-.49 1.33 14.49 14.49 0 007 7 1 1 0 00.76 0 1 1 0 00.57-.52l.62-1.4a13.68 13.68 0 001.58.46c.267.06.537.11.81.15a1 1 0 01.79 1l.02 3.12z"/></symbol><symbol viewBox="0 0 24 24" id="plus-circle1" xmlns="http://www.w3.org/2000/svg"><path d="M12 2a10 10 0 100 20 10 10 0 000-20zm0 18a8 8 0 110-16.001A8 8 0 0112 20zm4-9h-3V8a1 1 0 00-2 0v3H8a1 1 0 000 2h3v3a1 1 0 002 0v-3h3a1 1 0 000-2z"/></symbol><symbol viewBox="0 0 24 24" id="plus1" xmlns="http://www.w3.org/2000/svg"><path d="M19 11h-6V5a1 1 0 00-2 0v6H5a1 1 0 000 2h6v6a1 1 0 002 0v-6h6a1 1 0 000-2z"/></symbol><symbol viewBox="0 0 16 16" id="search" xmlns="http://www.w3.org/2000/svg"><path fill-rule="evenodd" clip-rule="evenodd" d="M7.333 2.75a4.583 4.583 0 100 9.167 4.583 4.583 0 000-9.167zM1.25 7.333a6.083 6.083 0 1112.167 0 6.083 6.083 0 01-12.167 0z"/><path fill-rule="evenodd" clip-rule="evenodd" d="M10.57 10.57a.75.75 0 011.06 0l2.9 2.9a.75.75 0 11-1.06 1.06l-2.9-2.9a.75.75 0 010-1.06z"/></symbol><symbol viewBox="0 0 24 24" id="share-alt1" xmlns="http://www.w3.org/2000/svg"><path d="M18 14a4 4 0 00-3.08 1.48l-5.1-2.35a3.64 3.64 0 000-2.26l5.1-2.35a4 4 0 10-.85-1.81L8.79 9.14a4 4 0 100 5.72l5.28 2.43A4.177 4.177 0 0014 18a4 4 0 104-4zm0-10a2 2 0 110 4 2 2 0 010-4zM6 14a2 2 0 110-4 2 2 0 010 4zm12 6a2 2 0 110-4 2 2 0 010 4z"/></symbol><symbol viewBox="0 0 24 24" id="shield-check1" xmlns="http://www.w3.org/2000/svg"><path d="M19.63 3.65a1 1 0 00-.84-.2 8 8 0 01-6.22-1.27 1 1 0 00-1.14 0 8 8 0 01-6.22 1.27A1 1 0 004 4.43v7.45a9 9 0 003.77 7.33l3.65 2.6a1 1 0 001.16 0l3.65-2.6A9 9 0 0020 11.88V4.43a1 1 0 00-.37-.78zM18 11.88a7 7 0 01-2.93 5.7L12 19.77l-3.07-2.19A7 7 0 016 11.88v-6.3a10 10 0 006-1.39 10 10 0 006 1.39v6.3zm-4.46-2.29l-2.69 2.7-.89-.9a1.004 1.004 0 00-1.42 1.42l1.6 1.6a1.002 1.002 0 001.42 0L15 11a1.004 1.004 0 10-1.42-1.42l-.04.01z"/></symbol><symbol viewBox="0 0 20 20" id="square" xmlns="http://www.w3.org/2000/svg"><g clip-path="url(#bqclip0)"><path d="M19.864.018a.242.242 0 00-.262.052L.085 19.59a.24.24 0 00.17.41h19.517a.24.24 0 00.24-.241V.242a.24.24 0 00-.148-.224zM.837 19.518L19.53.825V2.67h-1.363a.241.241 0 100 .482h1.363v1.265h-.56a.24.24 0 100 .482h.56v1.264h-.56a.241.241 0 000 .482h.56V7.91h-1.363a.241.241 0 000 .483h1.363v1.265h-.56a.241.241 0 100 .482h.56v1.264h-.56a.241.241 0 000 .482h.56v1.265h-1.363a.24.24 0 100 .483h1.363V14.9h-.56a.241.241 0 000 .482h.56v1.266h-.56a.241.241 0 100 .482h.56v1.265h-1.363a.241.241 0 000 .483h1.363v.642L.837 19.518z"/><path d="M17.03 7.23a.241.241 0 00-.262.053L7.33 16.719a.242.242 0 00.175.419h9.433a.241.241 0 00.241-.242V7.452a.242.242 0 00-.148-.222zm-.333 9.418H8.084l8.613-8.613v8.613zM3.214 13.544a1.962 1.962 0 001.398-.579l7.666-7.667v-.014a.233.233 0 00.05-.048.232.232 0 00.014-.027v-.012l1.06-3.516a.242.242 0 00-.303-.301l-1.037.312-2.479.75a.515.515 0 00-.083.05L3.127 8.858l-.868.868-.444.445a1.975 1.975 0 001.399 3.374zm.085-4.174l1.057 1.057 1.057 1.057-.529.528L2.762 9.89l.537-.52zm8.69-7.15c.125.244.329.44.578.555l-.579 1.898-1.88-1.887 1.88-.567zm-2.337.794l.888.887-6.015 6.013-.877-.878 6.004-6.022zm-3.9 8.128l-.887-.887 6.016-6.014.887.887-6.016 6.014zm6.962-8.84a.747.747 0 01-.245-.226l.343-.104-.098.33zm-10.557 8.21l.272-.272 2.121 2.12-.272.272a1.5 1.5 0 11-2.121-2.121z"/></g><defs><clipPath id="bqclip0"><path d="M0 0h20v20H0z"/></clipPath></defs></symbol><symbol viewBox="0 0 24 24" id="star1" xmlns="http://www.w3.org/2000/svg"><path d="M22 9.67a1 1 0 00-.86-.67l-5.69-.83L12.9 3a1 1 0 00-1.8 0L8.55 8.16 2.86 9a1 1 0 00-.81.68 1 1 0 00.25 1l4.13 4-1 5.68a1 1 0 001.45 1.07L12 18.76l5.1 2.68c.14.08.299.12.46.12a1 1 0 00.59-.19 1 1 0 00.4-1l-1-5.68 4.13-4A1 1 0 0022 9.67zm-6.15 4a1.001 1.001 0 00-.29.89l.72 4.19-3.76-2a1 1 0 00-.94 0l-3.76 2 .72-4.19a1 1 0 00-.29-.89l-3-3 4.21-.61a1 1 0 00.76-.55L12 5.7l1.88 3.82a1 1 0 00.76.55l4.21.61-3 2.99z"/></symbol><symbol viewBox="0 0 15 11" id="twiter" xmlns="http://www.w3.org/2000/svg"><path d="M14.695 2.012a6.182 6.182 0 01-1.623.397c.59-.314 1.032-.81 1.242-1.394-.555.294-1.162.5-1.795.612a2.945 2.945 0 00-1.603-.765 3.128 3.128 0 00-1.795.264A2.666 2.666 0 007.879 2.31a2.269 2.269 0 00-.175 1.614 8.8 8.8 0 01-3.227-.764A7.923 7.923 0 011.88 1.292a2.307 2.307 0 00-.382 1.267c0 .415.114.823.333 1.189.22.365.537.677.924.907a3.087 3.087 0 01-1.28-.315v.032c0 .582.225 1.145.638 1.596.414.45.989.759 1.629.874a3.162 3.162 0 01-1.277.043c.18.501.532.939 1.006 1.252a3.06 3.06 0 001.634.498c-1 .7-2.237 1.08-3.51 1.079-.227 0-.453-.012-.674-.036a8.726 8.726 0 004.332 1.132c5.198 0 8.04-3.839 8.04-7.168a5.91 5.91 0 00-.008-.326 5.449 5.449 0 001.411-1.304z"/></symbol><symbol viewBox="0 0 16 16" id="up" xmlns="http://www.w3.org/2000/svg"><path d="M8 .5L12 5H8.5v7.5h-1V5H4L8 .5z"/><path d="M14.5 14.5h-13v-3h-1V15a.5.5 0 00.5.5h14a.5.5 0 00.5-.5v-3.5h-1v3z"/></symbol><symbol viewBox="0 0 24 24" id="user" xmlns="http://www.w3.org/2000/svg"><path d="M11.981 2a10 10 0 00-7.35 16.76 10.001 10.001 0 0014.7 0A10 10 0 0011.981 2zm0 18a8 8 0 01-5.55-2.25 6 6 0 0111.1 0 8 8 0 01-5.55 2.25zm-2-10a2 2 0 114 0 2 2 0 01-4 0zm8.91 6a8 8 0 00-3.91-3.38 4 4 0 10-6 0A8 8 0 005.071 16a7.92 7.92 0 01-1.09-4 8 8 0 1116 0 7.92 7.92 0 01-1.09 4z"/></symbol><symbol viewBox="0 0 16 12" id="youtube" xmlns="http://www.w3.org/2000/svg"><path d="M15.85 2.602s-.15-1.168-.65-1.7c-.6-.69-1.3-.69-1.6-.743C11.35 0 8 0 8 0S4.65 0 2.4.16C2.1.211 1.4.211.8.902c-.5.53-.65 1.699-.65 1.699S0 3.982 0 5.362v1.275c0 1.38.15 2.761.15 2.761s.15 1.168.65 1.7c.6.69 1.4.636 1.75.743C3.85 11.947 8 12 8 12s3.35 0 5.6-.16c.3-.052 1-.052 1.6-.743.5-.53.65-1.699.65-1.699s.15-1.38.15-2.76V5.362c0-1.38-.15-2.761-.15-2.761zM6.35 8.23V3.451l4.3 2.39-4.3 2.39z"/></symbol></svg>